<svg xmlns="http://www.w3.org/2000/svg" viewBox="0 0 512 512"><rect width="512" height="512" rx="116" fill="#1e3a8a"/><g fill="#fff" transform="translate(130.30 40.00) scale(0.9076)"><path fill-rule="evenodd" d="M 233.545 8.398 C 220.237 26.080, 212.810 28.198, 187.584 21.504 C 135.113 7.582, 80.654 14.903, 32.073 42.410 C 16.252 51.368, 15.642 52.518, 29.117 47.981 C 41.351 43.862, 49.833 41.636, 48.371 42.928 C 47.892 43.351, 43.384 46.482, 38.354 49.887 C 28.915 56.274, 12.535 69.868, 13.324 70.658 C 13.570 70.903, 17.535 68.660, 22.136 65.672 C 48.038 48.848, 74.082 37.689, 101.042 31.863 C 110.177 29.888, 114.473 29.596, 135 29.551 C 159.140 29.499, 162.413 29.854, 178 34.219 C 186.981 36.735, 188.748 37.903, 182.837 37.418 C 119.779 32.240, 61.101 48.464, 19.750 82.511 C 11.027 89.693, 12.764 89.525, 26.250 81.885 C 64.935 59.967, 93.816 50.356, 131.500 46.858 C 152.656 44.894, 179.219 46.923, 193.214 51.571 L 198 53.161 198 58.892 C 198 62.044, 197.046 68.196, 195.881 72.562 C 194.715 76.928, 193.534 81.400, 193.255 82.500 C 192.976 83.600, 196.967 80.126, 202.124 74.781 C 218.314 57.998, 228.567 56.174, 254.763 65.417 C 260.678 67.503, 260.032 66.399, 251.301 59.500 C 242.487 52.536, 236.896 45.912, 234.470 39.560 C 231.777 32.510, 232.814 19.685, 236.889 9.623 C 238.644 5.291, 239.884 1.550, 239.644 1.310 C 239.404 1.070, 236.659 4.260, 233.545 8.398 M 218.554 32.950 C 215.713 34.358, 211.206 35.574, 207.960 35.809 L 202.310 36.218 205.044 41.359 C 206.548 44.187, 208.085 48.664, 208.459 51.310 C 208.834 53.955, 209.446 55.957, 209.820 55.757 C 214.888 53.054, 219.500 51.592, 224.118 51.225 L 229.736 50.779 227.203 46.247 C 225.763 43.671, 224.417 39.294, 224.085 36.107 L 223.500 30.500 218.554 32.950 M 232.922 100.274 C 228.189 103.463, 225.147 108.408, 224.385 114.154 C 223.586 120.177, 223.377 120, 221.220 111.479 C 219.250 103.698, 217.869 102.427, 212.484 103.437 C 205.306 104.784, 199 114.542, 199 124.304 C 199 126.781, 198.768 127.052, 197.527 126.022 C 196.717 125.350, 194.457 124.800, 192.504 124.800 C 183.476 124.800, 180.352 131.850, 179.489 154.179 C 178.663 175.568, 173.171 191.955, 163.066 203.189 C 160.251 206.318, 156.496 211.462, 154.720 214.621 C 152.120 219.245, 150.422 220.939, 145.996 223.323 C 142.973 224.951, 137.800 228.183, 134.500 230.506 C 108.163 249.047, 78.201 251.862, 60.500 237.458 L 56.500 234.203 51 235.980 C 47.975 236.958, 42.414 239.188, 38.642 240.938 C 34.870 242.687, 31.578 243.912, 31.326 243.660 C 30.041 242.374, 48.209 232.003, 51.750 232.001 C 53.494 232, 53.421 231.722, 49.560 223.672 C 46.308 216.892, 41 200.528, 41 197.281 C 41 196.459, 40.437 195.998, 39.750 196.257 C 39.062 196.516, 35.462 197.749, 31.750 198.999 C 28.038 200.248, 25 201.547, 25 201.886 C 25 202.224, 26.575 209.862, 28.500 218.858 C 32.573 237.892, 32.330 236, 30.697 236 C 29.981 236, 25.721 237.776, 21.232 239.947 L 13.071 243.894 12.567 240.697 C 11.642 234.832, 10.058 216.597, 9.777 208.584 L 9.500 200.667 12.500 199.794 C 14.150 199.314, 18.034 198.488, 21.132 197.958 C 32.181 196.068, 37.298 192.959, 40.255 186.341 C 49.099 166.543, 40.065 137.326, 23.738 132.929 C 20.552 132.072, 13.105 133.040, 12.984 134.328 C 12.975 134.422, 12.557 139.450, 12.055 145.500 C 10.982 158.443, 8.075 173.146, 4.246 185 C 1.604 193.179, 1.504 194.256, 1.618 213.500 C 1.870 256.200, 12.216 317.243, 22.171 334.762 C 24.984 339.714, 25.097 340.321, 24.080 345.061 C 22.801 351.024, 22.736 363.679, 23.951 369.979 C 24.561 373.140, 24.441 375.198, 23.544 376.979 C 21.626 380.784, 19.730 397.628, 20.962 399.928 C 21.973 401.817, 21.615 405.416, 17.480 435 C 16.596 441.325, 15.004 451.675, 13.942 458 C 11.172 474.497, 11.195 474.713, 15.789 475.151 C 22.674 475.808, 22.542 475.999, 24.379 462.706 C 27.043 443.433, 32.171 409.529, 32.470 409.213 C 32.619 409.054, 33.907 409.456, 35.332 410.105 C 37.639 411.157, 37.873 411.735, 37.466 415.393 C 35.066 437.006, 32.002 469.161, 32.001 472.750 C 32 474.778, 32.485 475, 36.904 475 L 41.808 475 42.453 464.250 C 42.808 458.338, 43.751 445.545, 44.549 435.822 C 45.347 426.100, 46 417.437, 46 416.572 C 46 414.929, 48.697 414.544, 52.698 415.617 L 54.895 416.206 54.289 445.603 L 53.682 475 59.397 475 L 65.111 475 64.542 458.750 C 64.229 449.813, 63.733 436.988, 63.438 430.250 L 62.903 418 67.322 418 L 71.742 418 72.359 423.750 C 72.699 426.913, 73.443 437.825, 74.014 448 C 74.585 458.175, 75.293 468.412, 75.587 470.750 L 76.123 475 81.325 475 L 86.528 475 85.815 463.750 C 85.423 457.563, 84.608 444.909, 84.004 435.631 C 83.399 426.353, 83.039 418.648, 83.202 418.509 C 83.366 418.370, 85.583 417.954, 88.128 417.585 L 92.757 416.914 93.414 424.707 C 93.776 428.993, 94.484 436.550, 94.988 441.500 C 95.491 446.450, 96.442 456.012, 97.100 462.750 L 98.296 475 106.898 475.225 C 117.826 475.512, 124.028 475.306, 124.699 474.634 C 124.990 474.344, 124.277 469.245, 123.115 463.303 C 119.693 445.797, 116.001 417.150, 116.001 408.091 C 116 399.776, 116.047 399.619, 120.183 394.091 C 122.484 391.016, 124.846 388.161, 125.433 387.746 C 127.398 386.358, 136.431 383.960, 143.500 382.949 C 157.948 380.883, 156.686 381.480, 157.254 376.437 C 157.720 372.307, 158.658 370.996, 168.164 361.209 C 180.105 348.913, 197.655 328.575, 210.437 312.219 C 217.765 302.842, 219.336 300.197, 219.748 296.540 C 220.212 292.429, 220.436 292.146, 223.178 292.224 C 229.487 292.404, 238.934 279.864, 238.978 271.250 C 238.990 268.913, 239.420 267, 239.933 267 C 242.046 267, 267.542 220.854, 266.676 218.597 C 266.199 217.355, 253.092 207.030, 251.966 207.010 C 251.672 207.004, 250.728 208.238, 249.868 209.750 C 249.008 211.262, 243.491 220.867, 237.608 231.094 L 226.911 249.688 222.850 245.975 L 218.788 242.262 224.709 232.381 C 227.966 226.947, 233.259 217.846, 236.473 212.158 C 239.686 206.470, 242.901 201.592, 243.616 201.317 C 246.367 200.262, 255.724 205.002, 265.657 212.483 C 268.426 214.569, 270.160 210.545, 272.001 197.757 C 274.805 178.287, 275.484 168, 273.965 168 C 273.265 168, 270.235 166.837, 267.231 165.416 C 264.226 163.995, 261.443 163.207, 261.046 163.666 C 260.267 164.565, 255.957 191.032, 255.984 194.750 C 255.993 195.988, 255.887 196.980, 255.750 196.956 C 244.157 194.909, 244.377 195.744, 249.829 174.500 L 253.679 159.500 257.728 159.578 C 259.955 159.621, 264.234 160.859, 267.238 162.328 C 275.765 166.500, 276.011 166.257, 275.980 153.668 C 275.941 136.944, 271.297 110.541, 267.905 107.750 C 263.228 103.902, 255.726 107.045, 252.603 114.160 C 251.446 116.796, 250.259 118.963, 249.965 118.976 C 249.670 118.989, 248.950 115.425, 248.365 111.055 C 246.992 100.799, 245.225 98, 240.125 98 C 237.798 98, 234.972 98.892, 232.922 100.274 M 233.422 109.939 C 231.058 113.511, 230.730 115.240, 229.899 128.521 C 228.865 145.047, 228.855 145, 233.559 145 L 237 145 237 134.654 C 237 128.963, 237.292 120.188, 237.650 115.154 C 238.391 104.713, 237.559 103.687, 233.422 109.939 M 210.144 111.327 C 206.198 116.081, 203.718 133.965, 205.425 145.350 C 206.119 149.978, 206.141 150, 210.061 150 L 214 150 213.994 138.250 C 213.987 124.106, 212.978 110, 211.974 110 C 211.573 110, 210.749 110.597, 210.144 111.327 M 259.044 115.918 C 256.530 120.616, 255 129.995, 255 140.710 L 255 152 258.500 152 L 262 152 262 133 C 262 114.562, 261.455 111.413, 259.044 115.918 M 189.808 131.652 C 187.198 134.548, 186.051 141.398, 186.024 154.250 L 186 166 189.500 166 L 193 166 192.883 157.750 C 192.818 153.213, 192.480 145.062, 192.133 139.637 C 191.532 130.278, 191.413 129.869, 189.808 131.652 M 19.630 149.250 C 18.745 159.023, 16.177 174.309, 14.327 180.824 C 12.474 187.351, 12.371 187.250, 19.047 185.482 C 22.046 184.687, 25.268 184.278, 26.206 184.572 C 30.868 186.034, 33.295 158.976, 29.310 149.967 C 24.617 139.359, 20.554 139.058, 19.630 149.250 M 229.660 151.750 C 229.409 152.162, 227.563 159.025, 225.559 167 C 223.555 174.975, 221.699 182.227, 221.433 183.115 C 221.066 184.346, 221.848 184.858, 224.725 185.267 C 226.801 185.562, 229.269 186.113, 230.208 186.492 C 232.158 187.280, 231.828 188.495, 234.952 169.026 C 236.142 161.615, 237.305 155.362, 237.537 155.130 C 237.769 154.897, 239.759 155.898, 241.958 157.354 C 247.422 160.969, 250.249 160.977, 246.924 157.368 C 242.662 152.740, 231.310 149.046, 229.660 151.750 M 207.373 157.471 C 207.113 158.148, 205.202 165.530, 203.127 173.876 L 199.353 189.051 201.927 189.594 C 203.342 189.894, 205.571 190.574, 206.879 191.107 C 209.822 192.304, 209.301 193.763, 211.385 178.500 C 213.921 159.917, 213.635 160.709, 217.552 161.444 C 221.964 162.271, 222.825 160.503, 218.749 158.987 C 212.842 156.791, 207.887 156.130, 207.373 157.471 M 181.980 180.750 C 180.218 186.113, 178.423 191.175, 177.992 192 C 177.386 193.161, 178.303 193.852, 182.047 195.058 L 186.885 196.616 188.523 189.058 C 191.528 175.190, 191.388 175.527, 194.308 175.184 C 198.326 174.711, 197.566 173.380, 192.557 172.119 C 185.329 170.299, 185.447 170.202, 181.980 180.750 M 210.250 208.362 C 200.883 224.897, 200.003 226.954, 202.250 227.058 C 202.938 227.089, 205.075 228.152, 206.999 229.419 L 210.498 231.722 218.775 214.668 C 223.328 205.288, 227.251 197.415, 227.494 197.172 C 228.360 196.307, 234.094 199.307, 235.073 201.137 C 236.252 203.340, 239 203.629, 239 201.551 C 239 198.470, 227.989 191.990, 222.800 192.017 C 219.583 192.033, 219.266 192.446, 210.250 208.362 M 189.398 207.750 C 185.604 214.213, 182.500 219.859, 182.500 220.298 C 182.500 220.737, 184.432 221.962, 186.793 223.019 C 190.810 224.817, 191.126 224.830, 191.712 223.220 C 192.057 222.274, 195.048 216.662, 198.358 210.750 C 203.302 201.919, 204.789 200, 206.688 200 C 210.004 200, 209.538 198.383, 205.851 197.098 C 197.833 194.303, 196.962 194.867, 189.398 207.750 M 172.815 201.750 C 170.114 204.912, 160.707 219.043, 161.108 219.336 C 161.324 219.493, 163.401 220.341, 165.723 221.220 L 169.947 222.818 175.723 213.414 C 180.248 206.049, 181.988 204.009, 183.750 204.005 C 187.541 203.996, 186.253 202.301, 181.557 201.119 C 175.612 199.622, 174.569 199.697, 172.815 201.750 M 150.305 228.469 C 146.909 229.944, 138 237.661, 138 239.127 C 138 239.607, 138.657 240, 139.459 240 C 140.262 240, 144.752 241.973, 149.437 244.383 L 157.955 248.767 163.268 244.133 C 166.190 241.585, 170.081 238.244, 171.916 236.709 C 175.904 233.372, 175.979 233.473, 167.352 230.543 C 157.808 227.300, 154.049 226.843, 150.305 228.469 M 171.300 239.952 C 159.827 249.953, 160.076 249.344, 166.615 251.405 C 169.653 252.362, 174.980 254.421, 178.452 255.978 L 184.765 258.811 185.763 256.655 C 186.311 255.470, 189.514 251.506, 192.880 247.847 C 196.246 244.187, 199 240.909, 199 240.561 C 199 239.800, 183.069 232, 181.515 232 C 180.914 232, 176.318 235.579, 171.300 239.952 M 124 245.933 C 115.588 250.368, 102.465 254.207, 93.925 254.731 L 85.350 255.257 89.666 261.693 C 93.766 267.807, 96.060 273.859, 97.469 282.278 C 97.900 284.857, 98.482 285.823, 99.301 285.321 C 99.960 284.917, 105.055 281.642, 110.622 278.043 C 116.189 274.445, 127.311 267.675, 135.336 263 C 143.362 258.325, 149.945 254.188, 149.964 253.806 C 150.023 252.668, 131.976 243.996, 129.648 244.044 C 128.467 244.069, 125.925 244.919, 124 245.933 M 32.672 250.692 C 24.154 254.846, 21 256.875, 21 258.199 C 21 259.198, 23.273 268.871, 26.050 279.696 C 28.828 290.520, 31.609 303.927, 32.230 309.487 L 33.360 319.598 42.430 322.538 C 47.418 324.156, 51.908 325.484, 52.407 325.489 C 54.098 325.509, 59.998 306.320, 60.642 298.707 C 61.421 289.488, 59.678 277.009, 56.296 267.595 C 53.232 259.064, 46.301 245, 45.161 245 C 44.712 245, 39.092 247.562, 32.672 250.692 M 197.546 253.080 C 193.300 257.524, 190.048 261.382, 190.319 261.653 C 193.543 264.876, 206.561 271.770, 207.985 271.008 C 210.222 269.811, 221 259.014, 221 257.971 C 221 256.786, 207.731 245, 206.397 245 C 205.774 245, 201.792 248.636, 197.546 253.080 M 14.017 264.250 C 14.052 274.581, 17.731 292.511, 22.648 306.308 C 25.928 315.511, 27.475 317.176, 26.627 310.588 C 25.525 302.036, 15.675 259, 14.820 259 C 14.369 259, 14.008 261.363, 14.017 264.250 M 157 262.860 C 154.525 264.411, 145.300 269.630, 136.500 274.457 C 115.139 286.174, 104.221 293.752, 93.955 303.983 C 86.048 311.864, 72.538 330.166, 73.209 332.088 C 73.369 332.547, 78.030 335.136, 83.567 337.841 L 93.634 342.759 94.874 338.562 C 96.593 332.741, 104.717 320.629, 112.654 312.057 C 123.452 300.394, 140.351 288.110, 165.777 273.442 C 177.249 266.824, 177.173 267.238, 167.783 262.420 C 161.998 259.451, 162.466 259.432, 157 262.860 M 176.532 278.074 C 139.014 298.938, 117.464 319.590, 108.579 343.194 L 106.067 349.868 115.228 354.966 C 125.348 360.597, 126.415 360.677, 127.376 355.872 C 131.334 336.079, 160.978 302.467, 189.772 285.124 C 193.768 282.717, 197.264 280.382, 197.540 279.936 C 198.009 279.176, 189.458 272, 188.083 272 C 187.737 272, 182.539 274.733, 176.532 278.074 M 36.365 337.234 C 38.935 340.603, 39 341.052, 39 355.344 C 39 368.872, 39.161 370.161, 41.088 372.088 C 43.041 374.041, 49.901 377.491, 50.476 376.809 C 50.619 376.639, 50.975 368.062, 51.266 357.748 L 51.796 338.996 44.648 336.905 C 40.717 335.755, 36.652 334.581, 35.615 334.297 C 34.002 333.854, 34.110 334.277, 36.365 337.234 M 60.652 353.656 C 60.293 359.516, 60 367.824, 60 372.117 L 60 379.923 63.750 380.908 C 72.980 383.334, 77.101 384.229, 77.415 383.878 C 77.601 383.670, 77.963 375.549, 78.219 365.830 L 78.685 348.161 70.878 345.580 C 66.583 344.161, 62.672 343, 62.187 343 C 61.701 343, 61.011 347.795, 60.652 353.656 M 88.496 359.250 C 88.170 361.038, 88.037 367.895, 88.201 374.488 C 88.561 388.930, 88.318 388.761, 100.719 383.188 C 105.548 381.018, 112.088 378.666, 115.250 377.962 C 119.985 376.908, 123.191 375, 120.228 375 C 119.803 375, 112.785 370.725, 104.631 365.500 C 96.477 360.275, 89.645 356, 89.448 356 C 89.251 356, 88.823 357.462, 88.496 359.250 M 147.500 386.123 C 129.080 389.434, 128.324 389.735, 123.757 395.586 C 118.972 401.715, 118.983 401.605, 121.099 422.500 C 121.921 430.611, 128.345 471.241, 129.292 474.315 C 129.748 475.796, 175.001 475.690, 175 474.208 C 175 473.497, 174.349 469.672, 173.554 465.708 C 170.256 449.268, 159 387.302, 159 385.587 C 159 384.783, 153.533 385.038, 147.500 386.123 M 31 392.980 C 31 397.733, 31.171 398.045, 34.750 399.842 C 40.759 402.858, 51.460 406.087, 56.161 406.302 L 60.500 406.500 60.795 400.371 L 61.089 394.243 54.295 393.537 C 50.558 393.150, 44.228 391.745, 40.229 390.416 C 30.759 387.269, 31 387.202, 31 392.980 M 70 402.877 L 70 408.877 74.614 409.569 C 79.832 410.352, 89.364 409.572, 93.415 408.032 C 95.787 407.131, 96.083 406.540, 95.810 403.252 L 95.500 399.500 87.500 398.903 C 83.100 398.574, 77.362 397.984, 74.750 397.591 L 70 396.877 70 402.877"/></g></svg>