<svg xmlns="http://www.w3.org/2000/svg" viewBox="291 792 1031 489" fill="#1e3a8a"><path fill-rule="evenodd" d="M 529.545 805.398 C 516.237 823.080, 508.810 825.198, 483.584 818.504 C 431.113 804.582, 376.654 811.903, 328.073 839.410 C 312.252 848.368, 311.642 849.518, 325.117 844.981 C 337.351 840.862, 345.833 838.636, 344.371 839.928 C 343.892 840.351, 339.384 843.482, 334.354 846.887 C 324.915 853.274, 308.535 866.868, 309.324 867.658 C 309.570 867.903, 313.535 865.660, 318.136 862.672 C 344.038 845.848, 370.082 834.689, 397.042 828.863 C 409.724 826.122, 449.725 825.458, 460.500 827.809 C 476.614 831.326, 487.068 835.094, 478.837 834.418 C 415.779 829.240, 357.101 845.464, 315.750 879.511 C 307.027 886.693, 308.764 886.525, 322.250 878.885 C 360.935 856.967, 389.816 847.356, 427.500 843.858 C 448.656 841.894, 475.219 843.923, 489.214 848.571 L 494 850.161 494 855.892 C 494 859.044, 493.046 865.196, 491.881 869.562 C 490.715 873.928, 489.534 878.400, 489.255 879.500 C 488.976 880.600, 492.967 877.126, 498.124 871.781 C 514.314 854.998, 524.567 853.174, 550.763 862.417 C 556.678 864.503, 556.032 863.399, 547.301 856.500 C 528.555 841.689, 524.446 827.467, 532.889 806.623 C 537.014 796.440, 536.443 796.231, 529.545 805.398 M 514.554 829.950 C 511.713 831.358, 507.206 832.574, 503.960 832.809 L 498.310 833.218 501.044 838.359 C 502.548 841.187, 504.085 845.664, 504.459 848.310 C 504.834 850.955, 505.446 852.957, 505.820 852.757 C 510.888 850.054, 515.500 848.592, 520.118 848.225 L 525.736 847.779 523.203 843.247 C 521.763 840.671, 520.417 836.294, 520.085 833.107 L 519.500 827.500 514.554 829.950 M 528.922 897.274 C 524.189 900.463, 521.147 905.408, 520.385 911.154 C 519.586 917.177, 519.377 917, 517.220 908.479 C 515.250 900.698, 513.869 899.427, 508.484 900.437 C 501.306 901.784, 495 911.542, 495 921.304 C 495 923.781, 494.768 924.052, 493.527 923.022 C 492.717 922.350, 490.457 921.800, 488.504 921.800 C 479.476 921.800, 476.352 928.850, 475.489 951.179 C 474.663 972.568, 469.171 988.955, 459.066 1000.189 C 456.251 1003.318, 452.496 1008.462, 450.720 1011.621 C 448.120 1016.245, 446.422 1017.939, 441.996 1020.323 C 438.973 1021.951, 433.800 1025.183, 430.500 1027.506 C 404.163 1046.047, 374.201 1048.862, 356.500 1034.458 L 352.500 1031.203 347 1032.980 C 343.975 1033.958, 338.414 1036.188, 334.642 1037.938 C 330.870 1039.687, 327.578 1040.912, 327.326 1040.660 C 326.041 1039.374, 344.209 1029.003, 347.750 1029.001 C 349.494 1029, 349.421 1028.722, 345.560 1020.672 C 342.308 1013.892, 337 997.528, 337 994.281 C 337 993.459, 336.438 992.998, 335.750 993.257 C 335.063 993.516, 331.462 994.749, 327.750 995.999 C 324.038 997.248, 321 998.547, 321 998.886 C 321 999.224, 322.575 1006.862, 324.500 1015.858 C 328.573 1034.892, 328.330 1033, 326.697 1033 C 325.981 1033, 321.721 1034.776, 317.232 1036.947 L 309.071 1040.894 308.567 1037.697 C 307.642 1031.832, 306.058 1013.597, 305.777 1005.584 L 305.500 997.667 308.500 996.794 C 310.150 996.314, 314.034 995.488, 317.132 994.958 C 328.181 993.068, 333.298 989.959, 336.255 983.341 C 345.099 963.543, 336.065 934.326, 319.738 929.929 C 316.552 929.072, 309.105 930.040, 308.984 931.328 C 308.975 931.422, 308.557 936.450, 308.055 942.500 C 306.982 955.443, 304.075 970.146, 300.246 982 C 292.075 1007.295, 303.984 1106.795, 318.171 1131.762 C 320.984 1136.714, 321.097 1137.321, 320.080 1142.061 C 318.801 1148.024, 318.736 1160.679, 319.951 1166.979 C 320.561 1170.140, 320.441 1172.198, 319.544 1173.979 C 317.626 1177.784, 315.730 1194.628, 316.962 1196.928 C 317.973 1198.817, 317.615 1202.416, 313.480 1232 C 312.596 1238.325, 311.004 1248.675, 309.942 1255 C 307.172 1271.497, 307.195 1271.713, 311.789 1272.151 C 318.674 1272.808, 318.542 1272.999, 320.379 1259.706 C 323.043 1240.433, 328.171 1206.529, 328.470 1206.213 C 330.277 1204.301, 333.871 1208.747, 333.466 1212.393 C 331.066 1234.006, 328.002 1266.161, 328.001 1269.750 C 328 1271.778, 328.485 1272, 332.904 1272 L 337.808 1272 338.453 1261.250 C 338.808 1255.338, 339.751 1242.545, 340.549 1232.822 C 341.347 1223.100, 342 1214.437, 342 1213.572 C 342 1211.929, 344.697 1211.544, 348.698 1212.617 L 350.895 1213.206 350.289 1242.603 L 349.682 1272 355.397 1272 L 361.111 1272 360.542 1255.750 C 360.229 1246.813, 359.733 1233.987, 359.438 1227.250 L 358.903 1215 363.322 1215 L 367.742 1215 368.359 1220.750 C 368.699 1223.912, 369.443 1234.825, 370.014 1245 C 370.585 1255.175, 371.293 1265.412, 371.587 1267.750 L 372.123 1272 377.325 1272 L 382.528 1272 381.815 1260.750 C 381.423 1254.563, 380.608 1241.909, 380.004 1232.631 C 379.399 1223.353, 379.039 1215.648, 379.202 1215.509 C 379.366 1215.370, 381.583 1214.954, 384.128 1214.585 L 388.757 1213.914 389.414 1221.707 C 389.776 1225.993, 390.484 1233.550, 390.988 1238.500 C 391.491 1243.450, 392.442 1253.013, 393.100 1259.750 L 394.296 1272 402.898 1272.225 C 413.826 1272.512, 420.028 1272.306, 420.699 1271.634 C 420.990 1271.344, 420.277 1266.245, 419.115 1260.303 C 415.693 1242.797, 412.001 1214.150, 412.001 1205.091 C 412 1196.776, 412.047 1196.619, 416.183 1191.091 C 421.910 1183.437, 424.816 1182.049, 439.500 1179.949 C 453.948 1177.883, 452.686 1178.480, 453.254 1173.437 C 453.720 1169.307, 454.658 1167.996, 464.164 1158.209 C 488.812 1132.829, 515.024 1099.968, 515.748 1093.540 C 516.212 1089.429, 516.436 1089.146, 519.178 1089.224 C 525.487 1089.404, 534.934 1076.864, 534.978 1068.250 C 534.990 1065.912, 535.420 1064, 535.933 1064 C 538.046 1064, 563.542 1017.854, 562.676 1015.597 C 562.199 1014.355, 549.092 1004.030, 547.966 1004.010 C 547.672 1004.004, 546.728 1005.237, 545.868 1006.750 C 545.008 1008.263, 539.491 1017.867, 533.608 1028.094 L 522.911 1046.688 518.850 1042.975 L 514.788 1039.262 520.709 1029.381 C 523.966 1023.947, 529.259 1014.846, 532.473 1009.158 C 535.686 1003.470, 538.901 998.592, 539.616 998.317 C 542.367 997.262, 551.724 1002.002, 561.657 1009.483 C 564.426 1011.569, 566.160 1007.545, 568.001 994.757 C 570.805 975.287, 571.484 965, 569.965 965 C 569.265 965, 566.235 963.837, 563.231 962.416 C 560.226 960.995, 557.443 960.207, 557.046 960.666 C 556.267 961.565, 551.957 988.032, 551.984 991.750 C 551.993 992.987, 551.888 993.980, 551.750 993.956 C 540.157 991.909, 540.377 992.744, 545.829 971.500 L 549.679 956.500 553.728 956.578 C 555.955 956.621, 560.234 957.859, 563.238 959.328 C 571.765 963.500, 572.011 963.257, 571.980 950.668 C 571.941 933.944, 567.297 907.541, 563.905 904.750 C 559.228 900.902, 551.726 904.045, 548.603 911.160 C 545.823 917.496, 545.608 917.338, 544.365 908.055 C 542.619 895.011, 537.540 891.466, 528.922 897.274 M 529.422 906.939 C 527.058 910.511, 526.730 912.240, 525.899 925.521 C 524.865 942.047, 524.855 942, 529.559 942 L 533 942 533 931.654 C 533 925.963, 533.292 917.188, 533.650 912.154 C 534.391 901.713, 533.559 900.687, 529.422 906.939 M 506.144 908.327 C 502.198 913.081, 499.718 930.965, 501.425 942.350 C 502.119 946.978, 502.141 947, 506.061 947 L 510 947 509.994 935.250 C 509.987 921.106, 508.978 907, 507.974 907 C 507.573 907, 506.749 907.597, 506.144 908.327 M 555.044 912.918 C 552.530 917.616, 551 926.995, 551 937.710 L 551 949 554.500 949 L 558 949 558 930 C 558 911.562, 557.455 908.413, 555.044 912.918 M 485.808 928.652 C 483.198 931.548, 482.051 938.398, 482.024 951.250 L 482 963 485.500 963 L 489 963 488.883 954.750 C 488.596 934.633, 487.650 926.606, 485.808 928.652 M 315.630 946.250 C 314.745 956.023, 312.177 971.309, 310.327 977.824 C 308.474 984.351, 308.371 984.250, 315.047 982.482 C 318.046 981.687, 321.268 981.278, 322.206 981.572 C 326.868 983.034, 329.295 955.976, 325.310 946.967 C 320.617 936.359, 316.554 936.058, 315.630 946.250 M 525.660 948.750 C 525.409 949.163, 523.563 956.025, 521.559 964 C 519.555 971.975, 517.699 979.227, 517.433 980.115 C 517.066 981.346, 517.848 981.858, 520.725 982.267 C 522.801 982.562, 525.269 983.113, 526.208 983.492 C 528.158 984.280, 527.828 985.495, 530.952 966.026 C 533.502 950.134, 532.957 951.044, 537.958 954.354 C 543.422 957.969, 546.249 957.977, 542.924 954.368 C 538.662 949.740, 527.310 946.046, 525.660 948.750 M 503.373 954.471 C 503.113 955.148, 501.202 962.530, 499.127 970.876 L 495.353 986.051 497.927 986.594 C 499.342 986.894, 501.571 987.574, 502.879 988.107 C 505.822 989.304, 505.301 990.763, 507.385 975.500 C 509.921 956.917, 509.635 957.709, 513.552 958.444 C 517.964 959.271, 518.825 957.503, 514.749 955.987 C 508.842 953.791, 503.887 953.130, 503.373 954.471 M 477.980 977.750 C 476.218 983.112, 474.423 988.175, 473.992 989 C 473.386 990.161, 474.303 990.852, 478.047 992.058 L 482.885 993.616 484.523 986.058 C 487.528 972.190, 487.388 972.527, 490.308 972.184 C 494.326 971.711, 493.566 970.380, 488.557 969.119 C 481.329 967.299, 481.447 967.202, 477.980 977.750 M 506.250 1005.362 C 496.883 1021.897, 496.003 1023.954, 498.250 1024.058 C 498.938 1024.089, 501.075 1025.152, 502.999 1026.419 L 506.498 1028.722 514.775 1011.668 C 519.328 1002.288, 523.251 994.415, 523.494 994.172 C 524.360 993.307, 530.094 996.307, 531.073 998.137 C 532.252 1000.340, 535 1000.629, 535 998.551 C 535 995.470, 523.989 988.990, 518.800 989.017 C 515.583 989.033, 515.266 989.446, 506.250 1005.362 M 485.398 1004.750 C 477.241 1018.644, 477.417 1017.612, 482.793 1020.019 C 486.810 1021.817, 487.126 1021.830, 487.712 1020.220 C 490.450 1012.708, 500.581 997, 502.688 997 C 506.004 997, 505.538 995.383, 501.851 994.098 C 493.833 991.303, 492.962 991.867, 485.398 1004.750 M 468.815 998.750 C 466.114 1001.912, 456.707 1016.043, 457.108 1016.336 C 457.324 1016.493, 459.401 1017.341, 461.723 1018.220 L 465.947 1019.818 471.723 1010.414 C 476.248 1003.049, 477.988 1001.009, 479.750 1001.005 C 483.541 1000.996, 482.253 999.301, 477.557 998.119 C 471.612 996.622, 470.569 996.697, 468.815 998.750 M 446.305 1025.469 C 440.189 1028.126, 431.842 1037, 435.459 1037 C 436.262 1037, 440.752 1038.973, 445.437 1041.383 L 453.955 1045.767 459.268 1041.133 C 462.190 1038.585, 466.081 1035.244, 467.916 1033.709 C 471.904 1030.372, 471.979 1030.473, 463.352 1027.543 C 453.808 1024.300, 450.049 1023.843, 446.305 1025.469 M 467.300 1036.952 C 455.827 1046.953, 456.076 1046.344, 462.615 1048.405 C 465.653 1049.362, 470.980 1051.421, 474.452 1052.978 L 480.765 1055.811 481.763 1053.655 C 482.311 1052.470, 485.514 1048.506, 488.880 1044.847 C 496.406 1036.665, 496.586 1037.695, 486.803 1032.964 C 476.452 1027.959, 477.975 1027.647, 467.300 1036.952 M 420 1042.933 C 411.588 1047.368, 398.465 1051.207, 389.925 1051.731 L 381.350 1052.257 385.666 1058.693 C 389.766 1064.807, 392.060 1070.859, 393.469 1079.278 C 393.900 1081.857, 394.482 1082.823, 395.301 1082.321 C 395.960 1081.917, 401.055 1078.642, 406.622 1075.043 C 412.189 1071.445, 423.311 1064.675, 431.336 1060 C 439.362 1055.325, 445.945 1051.188, 445.964 1050.806 C 446.023 1049.668, 427.976 1040.996, 425.648 1041.044 C 424.467 1041.069, 421.925 1041.919, 420 1042.933 M 328.672 1047.692 C 314.859 1054.429, 315.554 1051.381, 322.050 1076.696 C 324.828 1087.520, 327.609 1100.927, 328.230 1106.487 L 329.360 1116.598 338.430 1119.538 C 343.418 1121.156, 347.908 1122.484, 348.407 1122.489 C 350.098 1122.509, 355.998 1103.320, 356.642 1095.707 C 357.830 1081.658, 354.287 1066.556, 345.863 1049.750 C 341.233 1040.515, 342.965 1040.722, 328.672 1047.692 M 493.546 1050.080 C 489.300 1054.524, 486.048 1058.382, 486.319 1058.653 C 489.543 1061.876, 502.561 1068.770, 503.985 1068.008 C 506.222 1066.811, 517 1056.014, 517 1054.971 C 517 1053.786, 503.731 1042, 502.397 1042 C 501.774 1042, 497.792 1045.636, 493.546 1050.080 M 310.017 1061.250 C 310.061 1074.331, 318.122 1107.484, 322.235 1111.500 C 323.868 1113.094, 322.488 1104.903, 316.817 1079.338 C 311.610 1055.870, 309.985 1051.546, 310.017 1061.250 M 453 1059.860 C 450.525 1061.411, 441.300 1066.630, 432.500 1071.457 C 402.465 1087.932, 387.572 1100.250, 375.164 1118.877 C 367.646 1130.163, 367.281 1128.839, 379.567 1134.841 L 389.634 1139.759 390.874 1135.562 C 396.461 1116.639, 421.397 1093.737, 461.777 1070.442 C 473.249 1063.824, 473.173 1064.238, 463.783 1059.420 C 457.998 1056.451, 458.466 1056.432, 453 1059.860 M 1290.750 1057.580 C 1290.338 1057.994, 1289.996 1059.946, 1289.990 1061.917 C 1289.963 1071.788, 1279.615 1084.295, 1269.684 1086.458 C 1265.936 1087.274, 1266.476 1090.209, 1270.527 1091.037 C 1278.685 1092.706, 1290 1105.872, 1290 1113.696 C 1290 1117.384, 1291.845 1116.353, 1292.589 1112.250 C 1294.075 1104.047, 1303.295 1094.517, 1312.692 1091.473 L 1319.408 1089.296 1313.954 1087.493 C 1300.891 1083.173, 1294.164 1075.146, 1292.181 1061.513 C 1291.807 1058.936, 1291.162 1057.166, 1290.750 1057.580 M 472.532 1075.074 C 435.014 1095.938, 413.464 1116.590, 404.579 1140.194 L 402.067 1146.868 411.228 1151.966 C 421.348 1157.597, 422.415 1157.677, 423.376 1152.872 C 427.334 1133.079, 456.978 1099.467, 485.772 1082.124 C 494.989 1076.572, 494.909 1076.786, 489.377 1072.562 C 483.625 1068.169, 485.432 1067.900, 472.532 1075.074 M 332.365 1134.234 C 334.935 1137.603, 335 1138.052, 335 1152.344 C 335 1168.716, 335.322 1169.565, 342.696 1172.646 C 347.147 1174.506, 346.653 1176.440, 347.266 1154.748 L 347.796 1135.996 340.648 1133.905 C 336.717 1132.755, 332.652 1131.581, 331.615 1131.297 C 330.002 1130.854, 330.110 1131.277, 332.365 1134.234 M 527.294 1186.750 C 527.809 1227.135, 528.159 1235.348, 529.563 1240 C 537.240 1265.438, 555.543 1275.405, 594.500 1275.362 C 632.764 1275.321, 650.048 1266.210, 658.334 1241.714 C 660.334 1235.803, 660.453 1233.147, 660.779 1187.222 L 661.122 1138.944 646.811 1139.222 L 632.500 1139.500 632.393 1183.561 C 632.301 1221.854, 632.068 1228.279, 630.617 1232.649 C 627.115 1243.191, 619.209 1247.030, 599.500 1247.758 C 576.169 1248.619, 565.059 1245.499, 559.509 1236.525 L 556.500 1231.660 556.212 1185.330 L 555.924 1139 541.305 1139 L 526.685 1139 527.294 1186.750 M 690 1206 L 690 1273 744 1273 L 798 1273 798 1260 L 798 1247 758 1247 L 718 1247 718 1193 L 718 1139 704 1139 L 690 1139 690 1206 M 848.121 1140.127 C 820.282 1144.751, 806.738 1174.101, 820.260 1200.500 C 828.195 1215.990, 840.407 1219.997, 879.708 1220.006 C 906.083 1220.012, 910.299 1220.560, 913.968 1224.466 C 917.092 1227.791, 917.847 1235.412, 915.536 1240.282 C 912.352 1246.993, 912.295 1247, 864.099 1247 L 821 1247 821 1260 L 821 1273 864.126 1273 C 914.093 1273, 919.843 1272.308, 930.767 1264.979 C 949.147 1252.647, 951.880 1218.965, 935.686 1204.335 C 926.097 1195.673, 918.070 1193.994, 883 1193.321 C 862.933 1192.935, 853.558 1192.386, 851.316 1191.466 C 842.802 1187.968, 842.184 1171.417, 850.392 1166.709 C 851.904 1165.842, 864.022 1165.359, 893.253 1165 L 934.006 1164.500 934.542 1151.750 L 935.077 1139 894.288 1139.117 C 871.855 1139.181, 851.080 1139.636, 848.121 1140.127 M 1017.757 1140.250 C 1016.863 1140.938, 1011.880 1151.175, 1006.684 1163 C 1001.489 1174.825, 988.804 1203.625, 978.497 1227 C 968.190 1250.375, 959.534 1270.287, 959.262 1271.250 C 958.806 1272.861, 959.957 1273, 973.712 1273 L 988.658 1273 995.079 1258.007 L 1001.500 1243.013 1036.146 1243.007 L 1070.792 1243 1077.291 1257.750 L 1083.790 1272.500 1099.012 1272.777 C 1111.056 1272.996, 1114.121 1272.787, 1113.693 1271.777 C 1113.181 1270.567, 1089.480 1217.434, 1082.792 1202.500 C 1081.068 1198.650, 1078.216 1192.350, 1076.454 1188.500 C 1074.692 1184.650, 1070.989 1176.325, 1068.224 1170 C 1059.645 1150.376, 1054.931 1140.576, 1053.691 1139.788 C 1051.574 1138.442, 1019.573 1138.853, 1017.757 1140.250 M 1135 1205 C 1135 1241.300, 1134.888 1271.338, 1134.750 1271.750 C 1134.612 1272.162, 1140.912 1272.625, 1148.750 1272.777 L 1163 1273.055 1163 1252.527 L 1163 1232 1184.361 1232 L 1205.722 1232 1218.611 1252.483 L 1231.500 1272.967 1247.250 1272.983 C 1255.912 1272.993, 1263 1272.604, 1263 1272.119 C 1263 1271.635, 1256.509 1261.855, 1248.576 1250.386 L 1234.152 1229.534 1239.326 1227.627 C 1270.385 1216.178, 1271.509 1159.960, 1240.987 1144.493 C 1231.055 1139.461, 1226.231 1139.036, 1178.750 1139.017 L 1135 1139 1135 1205 M 356.652 1150.656 C 356.293 1156.516, 356 1164.824, 356 1169.117 L 356 1176.923 359.750 1177.908 C 368.980 1180.334, 373.101 1181.229, 373.415 1180.878 C 373.601 1180.670, 373.963 1172.549, 374.219 1162.830 L 374.685 1145.161 366.878 1142.580 C 362.583 1141.161, 358.672 1140, 358.187 1140 C 357.701 1140, 357.011 1144.795, 356.652 1150.656 M 384.496 1156.250 C 384.170 1158.037, 384.037 1164.895, 384.201 1171.488 C 384.561 1185.930, 384.318 1185.761, 396.719 1180.188 C 401.548 1178.018, 408.087 1175.666, 411.250 1174.962 C 415.985 1173.908, 419.191 1172, 416.228 1172 C 415.803 1172, 408.785 1167.725, 400.631 1162.500 C 383.408 1151.464, 385.242 1152.174, 384.496 1156.250 M 1163 1185.500 L 1163 1206 1187.451 1206 C 1228.107 1206, 1235.009 1202.629, 1233.774 1183.378 C 1232.712 1166.833, 1228.584 1165.051, 1191.250 1165.022 L 1163 1165 1163 1185.500 M 1027.316 1185.286 C 1022.814 1195.854, 1017.982 1207.088, 1016.578 1210.250 L 1014.025 1216 1035.580 1216 L 1057.135 1216 1056.436 1213.750 C 1056.051 1212.513, 1053.830 1207.225, 1051.499 1202 C 1044.458 1186.215, 1037 1168.260, 1037 1167.096 C 1037 1163.656, 1034.644 1168.081, 1027.316 1185.286 M 443.500 1183.123 C 425.080 1186.434, 424.324 1186.735, 419.757 1192.586 C 414.972 1198.715, 414.983 1198.605, 417.099 1219.500 C 417.921 1227.611, 424.345 1268.241, 425.292 1271.315 C 425.748 1272.796, 471.001 1272.690, 471 1271.208 C 471 1270.497, 470.349 1266.672, 469.554 1262.708 C 466.256 1246.268, 455 1184.302, 455 1182.587 C 455 1181.783, 449.533 1182.038, 443.500 1183.123 M 327 1189.980 C 327 1194.733, 327.171 1195.045, 330.750 1196.842 C 336.759 1199.858, 347.460 1203.087, 352.161 1203.302 L 356.500 1203.500 356.795 1197.371 L 357.089 1191.243 350.295 1190.537 C 346.558 1190.150, 340.228 1188.745, 336.229 1187.416 C 326.759 1184.269, 327 1184.202, 327 1189.980 M 366 1199.877 L 366 1205.877 370.614 1206.569 C 382.689 1208.380, 392.247 1205.531, 391.810 1200.252 L 391.500 1196.500 383.500 1195.903 C 379.100 1195.574, 373.363 1194.984, 370.750 1194.591 L 366 1193.877 366 1199.877"/></svg>